<svg width="342" height="87" viewBox="0 0 342 87" fill="none" xmlns="http://www.w3.org/2000/svg">
<path d="M74.144 64.904C74.144 63.0267 74.592 60.4027 75.488 57.032C76.384 53.6187 77.6427 49.6507 79.264 45.128C81.9093 37.9173 84.384 31.9227 86.688 27.144C89.0347 22.3227 91.3173 18.568 93.536 15.88C94.048 15.9653 94.6667 16.1787 95.392 16.52C96.16 16.8613 96.9067 17.2453 97.632 17.672C98.3573 18.056 98.9973 18.4613 99.552 18.888C100.149 19.3147 100.533 19.656 100.704 19.912C97.376 23.8373 94.4533 28.0613 91.936 32.584C89.4187 37.1067 87.1147 42.2907 85.024 48.136C83.232 53.1707 81.8667 57.7147 80.928 61.768C79.9893 65.7787 79.52 69.128 79.52 71.816C79.52 72.5413 79.52 72.9893 79.52 73.16C79.52 73.3307 79.5413 73.5013 79.584 73.672C78.9867 73.5867 78.4747 73.4373 78.048 73.224C77.6213 73.0107 77.344 72.7547 77.216 72.456C77.1307 72.2427 76.896 71.9227 76.512 71.496C76.128 71.112 75.7867 70.8133 75.488 70.6C75.104 70.344 74.784 69.6827 74.528 68.616C74.272 67.5067 74.144 66.2693 74.144 64.904ZM89.397 64.712C89.397 64.328 89.4183 63.8587 89.461 63.304C89.5463 62.7067 89.6743 61.9387 89.845 61C90.0157 60.0187 90.229 58.8453 90.485 57.48C90.7837 56.1147 91.1463 54.472 91.573 52.552C91.6583 52.1253 91.8503 51.4427 92.149 50.504C92.4477 49.5653 92.8317 48.584 93.301 47.56C93.813 46.4933 94.4103 45.4693 95.093 44.488C95.8183 43.5067 96.6717 42.7813 97.653 42.312C98.3783 42.4827 99.3383 42.9307 100.533 43.656C101.728 44.3387 102.752 45.2987 103.605 46.536C102.624 47.6453 101.792 48.7547 101.109 49.864C100.469 50.9733 99.8717 52.1253 99.317 53.32C98.805 54.5147 98.3143 55.752 97.845 57.032C97.4183 58.312 96.9277 59.656 96.373 61.064C95.9037 62.2587 95.477 63.496 95.093 64.776C94.709 66.0133 94.4957 67.1013 94.453 68.04C94.453 68.808 94.4317 69.3413 94.389 69.64C94.389 69.9813 94.2823 70.152 94.069 70.152C93.8983 70.152 93.557 70.0453 93.045 69.832C92.533 69.6187 91.9997 69.2987 91.445 68.872C90.933 68.4027 90.4637 67.8267 90.037 67.144C89.6103 66.4613 89.397 65.6507 89.397 64.712ZM101.621 36.936C101.621 36.68 101.685 36.296 101.813 35.784C101.6 35.5707 101.408 35.2507 101.237 34.824C101.109 34.3973 101.045 34.0133 101.045 33.672C101.045 33.288 101.088 32.776 101.173 32.136C101.301 31.4533 101.45 30.728 101.621 29.96C101.792 29.192 102.005 28.4027 102.261 27.592C102.517 26.7387 102.773 25.9707 103.029 25.288C103.541 25.288 104.16 25.4373 104.885 25.736C105.653 25.992 106.421 26.3547 107.189 26.824C107.957 27.2507 108.661 27.7413 109.301 28.296C109.941 28.808 110.432 29.2987 110.773 29.768C110.304 30.2373 109.685 30.8987 108.917 31.752C108.149 32.5627 107.402 33.4373 106.677 34.376C105.952 35.272 105.29 36.1253 104.693 36.936C104.096 37.7467 103.712 38.3227 103.541 38.664C103.029 38.5787 102.581 38.3653 102.197 38.024C101.813 37.64 101.621 37.2773 101.621 36.936ZM107.978 46.344C107.978 45.576 108.021 44.8507 108.106 44.168C108.234 43.4853 108.469 42.9093 108.81 42.44C109.151 41.928 109.621 41.544 110.218 41.288C110.815 40.9893 111.605 40.84 112.586 40.84C113.183 40.84 113.845 40.904 114.57 41.032C115.338 41.16 115.893 41.3947 116.234 41.736C116.063 42.4613 115.914 43.1013 115.786 43.656C115.701 44.2107 115.615 44.8293 115.53 45.512C115.487 46.152 115.445 46.9413 115.402 47.88C115.359 48.776 115.317 49.9493 115.274 51.4C115.189 54.3013 115.039 56.904 114.826 59.208C114.655 61.4693 114.229 63.7307 113.546 65.992C113.546 66.1627 113.61 66.248 113.738 66.248C114.378 65.7787 115.103 65.096 115.914 64.2C116.725 63.304 117.578 62.3013 118.474 61.192C119.37 60.04 120.266 58.824 121.162 57.544C122.058 56.264 122.89 55.0053 123.658 53.768C124.682 51.976 125.813 49.736 127.05 47.048C128.287 44.36 129.311 41.48 130.122 38.408C130.378 38.408 130.698 38.472 131.082 38.6C131.509 38.6853 131.914 38.8133 132.298 38.984C132.725 39.112 133.087 39.2613 133.386 39.432C133.727 39.6027 133.962 39.752 134.09 39.88C134.005 41.7147 133.557 43.592 132.746 45.512C131.978 47.432 131.039 49.288 129.93 51.08C128.821 52.872 127.647 54.5573 126.41 56.136C125.173 57.7147 124.042 59.08 123.018 60.232C120.97 62.6213 118.901 64.7547 116.81 66.632C114.762 68.5093 112.309 70.3227 109.45 72.072C108.341 71.6453 107.466 71.0693 106.826 70.344C106.186 69.6613 105.866 68.936 105.866 68.168C105.866 67.656 105.973 67.08 106.186 66.44C106.442 65.7573 106.719 64.904 107.018 63.88C107.317 62.8133 107.573 61.4907 107.786 59.912C108.042 58.3333 108.17 56.328 108.17 53.896C108.17 52.488 108.127 51.08 108.042 49.672C107.999 48.2213 107.978 47.112 107.978 46.344ZM156.058 42.504C155.887 45.1493 155.418 47.432 154.65 49.352C153.882 51.2293 152.772 52.8933 151.322 54.344C149.914 55.752 148.186 57.032 146.138 58.184C144.09 59.336 141.7 60.4453 138.97 61.512C138.97 61.768 138.948 62.0453 138.906 62.344C138.906 62.6 138.906 62.8773 138.906 63.176C138.906 63.7307 138.948 64.3067 139.034 64.904C139.119 65.5013 139.268 66.056 139.482 66.568C139.695 67.08 139.994 67.5067 140.378 67.848C140.762 68.1467 141.252 68.296 141.85 68.296C143.002 68.296 144.132 68.04 145.242 67.528C146.351 67.016 147.396 66.3973 148.378 65.672C149.402 64.904 150.34 64.0933 151.194 63.24C152.09 62.344 152.879 61.5333 153.562 60.808C153.988 61.192 154.351 61.5547 154.65 61.896C152.73 64.456 150.618 66.5893 148.314 68.296C146.052 69.96 143.898 71.0267 141.85 71.496C138.906 71.1547 136.602 70.088 134.938 68.296C133.316 66.4613 132.506 64.264 132.506 61.704C132.506 59.9547 132.74 58.184 133.21 56.392C133.722 54.5573 134.404 52.808 135.258 51.144C136.154 49.4373 137.178 47.8373 138.33 46.344C139.524 44.8507 140.783 43.5493 142.106 42.44C143.471 41.3307 144.858 40.456 146.266 39.816C147.716 39.176 149.146 38.856 150.554 38.856C152.516 39.112 154.351 40.328 156.058 42.504ZM151.642 44.616C150.49 44.7867 149.295 45.256 148.058 46.024C146.82 46.792 145.647 47.816 144.538 49.096C143.471 50.376 142.49 51.8693 141.594 53.576C140.698 55.2827 139.994 57.1173 139.482 59.08C142.895 57.3733 145.732 55.2827 147.994 52.808C150.255 50.2907 151.471 47.56 151.642 44.616ZM181.101 43.528C181.058 44.3387 180.909 45.192 180.653 46.088C180.439 46.9413 180.162 47.7307 179.821 48.456C179.479 49.1387 179.117 49.7147 178.733 50.184C178.349 50.6533 177.986 50.888 177.645 50.888C177.175 50.8453 176.898 50.5253 176.813 49.928C176.813 49.8 176.855 49.608 176.941 49.352C177.069 49.0533 177.197 48.7333 177.325 48.392C177.453 48.0507 177.559 47.7093 177.645 47.368C177.773 47.0267 177.837 46.728 177.837 46.472C177.837 45.8747 177.687 45.384 177.389 45C177.133 44.5733 176.77 44.36 176.301 44.36C174.594 44.36 173.293 45.4267 172.397 47.56C171.501 49.6933 171.053 52.8293 171.053 56.968C171.053 57.3947 171.074 57.6507 171.117 57.736C172.013 57.6933 172.802 57.672 173.485 57.672C174.21 57.6293 174.914 57.608 175.597 57.608C175.639 57.6933 175.661 57.864 175.661 58.12C175.661 58.504 175.575 58.7813 175.405 58.952C174.423 59.1653 173.634 59.3573 173.037 59.528C172.482 59.656 172.055 59.784 171.757 59.912C171.458 60.04 171.266 60.1893 171.181 60.36C171.138 60.488 171.117 60.68 171.117 60.936C171.117 61.2773 171.117 61.6187 171.117 61.96C171.159 62.3013 171.181 62.728 171.181 63.24C171.181 66.824 170.199 69.704 168.237 71.88C166.317 74.056 163.629 75.3147 160.173 75.656C159.575 75.6133 158.957 75.4427 158.317 75.144C157.677 74.8453 157.058 74.4613 156.461 73.992C155.906 73.5227 155.415 72.9893 154.989 72.392C154.562 71.8373 154.263 71.2613 154.093 70.664C154.093 69.0427 154.434 67.5067 155.117 66.056C155.799 64.5627 156.717 63.2613 157.869 62.152C159.063 61 160.45 60.0827 162.029 59.4C163.65 58.6747 165.399 58.248 167.277 58.12C167.277 57.0533 167.17 56.008 166.957 54.984C166.743 53.96 166.509 52.9787 166.253 52.04C166.039 51.0587 165.826 50.12 165.613 49.224C165.399 48.2853 165.293 47.368 165.293 46.472C165.293 45.32 165.527 44.1893 165.997 43.08C166.466 41.928 167.085 40.8827 167.853 39.944C168.621 38.9627 169.517 38.1307 170.541 37.448C171.565 36.7653 172.631 36.296 173.741 36.04C174.21 36.168 174.829 36.552 175.597 37.192C176.407 37.7893 177.197 38.472 177.965 39.24C178.733 40.008 179.415 40.7973 180.013 41.608C180.61 42.376 180.973 43.016 181.101 43.528ZM159.981 72.712C161.005 72.2853 161.965 71.6667 162.861 70.856C163.799 70.0453 164.61 69.128 165.293 68.104C165.975 67.08 166.509 65.992 166.893 64.84C167.319 63.688 167.533 62.5573 167.533 61.448C166.679 61.576 165.741 61.9813 164.717 62.664C163.693 63.304 162.733 64.0933 161.837 65.032C160.941 65.928 160.194 66.8667 159.597 67.848C158.999 68.8293 158.701 69.6827 158.701 70.408C158.701 71.3467 159.127 72.1147 159.981 72.712ZM184.922 44.488C184.708 44.232 184.516 43.6987 184.345 42.888C184.175 42.0347 184.09 41.3093 184.09 40.712C185.199 40.7973 186.266 40.8827 187.29 40.968C188.314 41.0107 189.252 41.0533 190.106 41.096C190.746 39.816 191.428 38.5573 192.154 37.32C192.922 36.04 193.647 34.888 194.33 33.864C195.055 32.7973 195.716 31.9013 196.314 31.176C196.954 30.4507 197.444 29.9813 197.786 29.768C198.212 29.768 198.746 29.8533 199.386 30.024C200.068 30.152 200.751 30.344 201.434 30.6C202.116 30.8133 202.735 31.048 203.29 31.304C203.844 31.56 204.228 31.816 204.442 32.072C203.162 33.6933 202.052 35.208 201.114 36.616C200.218 37.9813 199.236 39.56 198.17 41.352C199.023 41.352 199.876 41.3307 200.73 41.288C201.626 41.2453 202.522 41.1813 203.418 41.096C203.631 41.3093 203.802 41.5867 203.93 41.928C204.058 42.2267 204.122 42.5467 204.122 42.888C202.031 43.656 199.492 44.0827 196.506 44.168C195.439 46.216 194.479 48.264 193.626 50.312C192.815 52.3173 192.111 54.2587 191.514 56.136C190.959 58.0133 190.511 59.784 190.17 61.448C189.871 63.112 189.722 64.6053 189.722 65.928C189.722 67.8053 190.426 68.8507 191.833 69.064C193.113 68.8933 194.33 68.5733 195.482 68.104C196.634 67.6347 197.658 67.0373 198.554 66.312C198.81 66.696 198.959 67.016 199.002 67.272C198.746 67.656 198.298 68.104 197.658 68.616C197.06 69.128 196.399 69.6187 195.674 70.088C194.948 70.6 194.244 71.0267 193.562 71.368C192.879 71.7093 192.367 71.9013 192.026 71.944C190.959 71.9013 189.892 71.6667 188.826 71.24C187.759 70.8133 186.778 70.28 185.882 69.64C185.028 69 184.324 68.296 183.77 67.528C183.215 66.7173 182.938 65.928 182.938 65.16C182.938 64.136 183.066 62.856 183.322 61.32C183.62 59.7413 184.026 58.0347 184.538 56.2C185.05 54.3653 185.647 52.4453 186.33 50.44C187.012 48.4347 187.759 46.4507 188.57 44.488H184.922ZM202.11 67.72C202.323 66.4827 202.686 64.8613 203.198 62.856C203.752 60.808 204.392 58.6533 205.118 56.392C205.843 54.088 206.611 51.784 207.422 49.48C208.232 47.176 209.022 45.1067 209.79 43.272C210.344 41.9493 210.835 40.9253 211.262 40.2C211.688 39.432 212.158 38.792 212.67 38.28C213.267 38.3653 213.886 38.5147 214.526 38.728C215.166 38.9413 215.784 39.1973 216.382 39.496C216.979 39.7947 217.512 40.1147 217.982 40.456C218.451 40.7547 218.814 41.0533 219.07 41.352C217.918 42.7173 216.894 44.2747 215.998 46.024C215.144 47.7733 214.27 50.0133 213.374 52.744C215.678 50.696 217.704 48.7333 219.454 46.856C221.246 44.9787 222.91 42.888 224.446 40.584C224.702 40.3707 225.15 40.264 225.79 40.264C226.387 40.264 226.963 40.3707 227.518 40.584C228.072 40.7547 228.456 41.0107 228.67 41.352C227.902 43.4 227.518 45.4267 227.518 47.432C227.518 49.3093 227.795 50.7173 228.35 51.656C228.307 51.912 228.008 52.4027 227.454 53.128C226.942 53.8533 226.366 54.536 225.726 55.176C224.574 54.5787 223.55 53.768 222.654 52.744C221.758 51.6773 221.096 50.5253 220.67 49.288C218.664 50.696 216.958 52.0827 215.55 53.448C214.142 54.7707 212.926 56.264 211.902 57.928C210.92 59.5493 210.067 61.4267 209.342 63.56C208.659 65.6933 207.998 68.232 207.358 71.176C206.974 71.1333 206.504 70.984 205.95 70.728C205.438 70.5147 204.904 70.2373 204.35 69.896C203.838 69.5547 203.368 69.192 202.942 68.808C202.515 68.424 202.238 68.0613 202.11 67.72ZM252.37 42.504C252.199 45.1493 251.73 47.432 250.962 49.352C250.194 51.2293 249.085 52.8933 247.634 54.344C246.226 55.752 244.498 57.032 242.45 58.184C240.402 59.336 238.013 60.4453 235.282 61.512C235.282 61.768 235.261 62.0453 235.218 62.344C235.218 62.6 235.218 62.8773 235.218 63.176C235.218 63.7307 235.261 64.3067 235.346 64.904C235.431 65.5013 235.581 66.056 235.794 66.568C236.007 67.08 236.306 67.5067 236.69 67.848C237.074 68.1467 237.565 68.296 238.162 68.296C239.314 68.296 240.445 68.04 241.554 67.528C242.663 67.016 243.709 66.3973 244.69 65.672C245.714 64.904 246.653 64.0933 247.506 63.24C248.402 62.344 249.191 61.5333 249.874 60.808C250.301 61.192 250.663 61.5547 250.962 61.896C249.042 64.456 246.93 66.5893 244.626 68.296C242.365 69.96 240.21 71.0267 238.162 71.496C235.218 71.1547 232.914 70.088 231.25 68.296C229.629 66.4613 228.818 64.264 228.818 61.704C228.818 59.9547 229.053 58.184 229.522 56.392C230.034 54.5573 230.717 52.808 231.57 51.144C232.466 49.4373 233.49 47.8373 234.642 46.344C235.837 44.8507 237.095 43.5493 238.418 42.44C239.783 41.3307 241.17 40.456 242.578 39.816C244.029 39.176 245.458 38.856 246.866 38.856C248.829 39.112 250.663 40.328 252.37 42.504ZM247.954 44.616C246.802 44.7867 245.607 45.256 244.37 46.024C243.133 46.792 241.959 47.816 240.85 49.096C239.783 50.376 238.802 51.8693 237.906 53.576C237.01 55.2827 236.306 57.1173 235.794 59.08C239.207 57.3733 242.045 55.2827 244.306 52.808C246.567 50.2907 247.783 47.56 247.954 44.616ZM277.413 43.144C277.84 43.144 278.33 43.2293 278.885 43.4C279.482 43.528 280.016 43.72 280.485 43.976C280.954 44.1893 281.338 44.424 281.637 44.68C281.978 44.936 282.149 45.1707 282.149 45.384C281.296 47.176 280.506 48.9893 279.781 50.824C279.056 52.616 278.437 54.344 277.925 56.008C277.413 57.672 277.008 59.2293 276.709 60.68C276.453 62.1307 276.325 63.3893 276.325 64.456C276.325 65.6507 276.453 66.6533 276.709 67.464C276.965 68.232 277.392 68.7867 277.989 69.128C277.477 69.4693 276.816 69.7467 276.005 69.96C275.194 70.1733 274.469 70.28 273.829 70.28C271.525 70.28 270.373 68.7013 270.373 65.544C270.373 63.112 271.184 59.784 272.805 55.56C271.952 57.5227 270.97 59.3787 269.861 61.128C268.752 62.8347 267.621 64.3493 266.469 65.672C265.317 66.9947 264.144 68.0827 262.949 68.936C261.797 69.7467 260.73 70.2373 259.749 70.408C258.17 70.3227 256.89 69.576 255.909 68.168C254.928 66.7173 254.437 64.8827 254.437 62.664C254.437 60.2747 254.949 57.7573 255.973 55.112C256.997 52.4667 258.298 50.0133 259.877 47.752C261.498 45.4907 263.248 43.6133 265.125 42.12C267.002 40.584 268.816 39.7733 270.565 39.688C270.992 39.816 271.461 40.072 271.973 40.456C272.528 40.84 273.04 41.288 273.509 41.8C274.021 42.312 274.448 42.8453 274.789 43.4C275.13 43.912 275.322 44.36 275.365 44.744C273.658 45 271.888 45.832 270.053 47.24C268.261 48.648 266.618 50.3547 265.125 52.36C263.674 54.3227 262.48 56.4347 261.541 58.696C260.602 60.9573 260.133 63.0693 260.133 65.032C260.133 65.8427 260.432 66.3547 261.029 66.568C262.266 66.312 263.696 65.2667 265.317 63.432C266.938 61.5547 268.901 58.6747 271.205 54.792C271.632 54.024 272.101 53.1707 272.613 52.232C273.168 51.2933 273.722 50.312 274.277 49.288C274.832 48.264 275.365 47.24 275.877 46.216C276.432 45.1493 276.944 44.1253 277.413 43.144ZM322.388 49.352C321.705 49.3947 320.873 49.8427 319.892 50.696C318.91 51.5067 317.844 52.5733 316.692 53.896C315.582 55.176 314.409 56.6053 313.172 58.184C311.977 59.7627 310.804 61.3413 309.652 62.92C308.542 64.456 307.497 65.9067 306.516 67.272C305.534 68.6373 304.702 69.7253 304.02 70.536C303.081 70.152 302.27 69.5973 301.588 68.872C300.905 68.104 300.414 67.1653 300.116 66.056C300.329 64.7333 300.628 63.368 301.012 61.96C301.396 60.5093 301.886 59.016 302.484 57.48C303.124 55.944 303.892 54.344 304.788 52.68C305.726 50.9733 306.857 49.1813 308.18 47.304C307.54 47.3467 306.665 47.816 305.556 48.712C304.446 49.5653 303.252 50.696 301.972 52.104C300.692 53.4693 299.369 55.0267 298.003 56.776C296.638 58.4827 295.358 60.168 294.164 61.832C292.585 64.0507 291.262 65.992 290.196 67.656C289.172 69.32 288.425 70.3013 287.956 70.6C286.846 69.7893 286.078 68.9147 285.652 67.976C285.225 67.0373 284.905 65.992 284.692 64.84C284.734 63.816 284.884 62.536 285.14 61C285.438 59.464 285.844 57.8853 286.356 56.264C287.337 53.1493 288.596 50.056 290.132 46.984C291.71 43.912 293.225 41.096 294.676 38.536C295.87 38.792 296.937 39.1973 297.876 39.752C298.857 40.3067 299.881 41.1173 300.948 42.184C300.521 43.5067 299.86 44.9147 298.964 46.408C298.068 47.8587 297.129 49.3947 296.148 51.016C295.166 52.6373 294.27 54.3013 293.46 56.008C292.649 57.7147 292.116 59.4427 291.86 61.192C293.054 59.4853 294.462 57.5227 296.083 55.304C297.748 53.0853 299.433 50.9947 301.14 49.032C302.889 47.0693 304.617 45.4053 306.324 44.04C308.03 42.6747 309.566 41.992 310.932 41.992C311.444 41.992 311.998 42.0773 312.596 42.248C313.193 42.4187 313.748 42.632 314.26 42.888C314.772 43.144 315.198 43.4 315.54 43.656C315.881 43.8693 316.073 44.04 316.116 44.168C315.902 45.0213 315.39 46.1947 314.58 47.688C313.812 49.1387 312.98 50.6747 312.083 52.296C311.188 53.9173 310.356 55.496 309.588 57.032C308.82 58.5253 308.372 59.72 308.244 60.616C310.334 57.7573 312.297 55.176 314.132 52.872C315.966 50.5253 317.694 48.52 319.316 46.856C320.937 45.192 322.43 43.912 323.796 43.016C325.204 42.12 326.526 41.672 327.764 41.672C328.617 41.672 329.406 41.9067 330.132 42.376C330.9 42.8027 331.433 43.4427 331.732 44.296C331.348 45.576 330.708 47.112 329.812 48.904C328.958 50.696 328.084 52.5947 327.188 54.6C326.292 56.5627 325.481 58.504 324.756 60.424C324.073 62.344 323.732 64.072 323.732 65.608C323.732 66.504 323.86 67.1013 324.116 67.4C324.372 67.656 324.734 67.784 325.204 67.784C325.716 67.784 326.185 67.6987 326.612 67.528C327.081 67.3147 327.422 67.208 327.636 67.208C327.892 67.3787 328.041 67.592 328.084 67.848C328.126 68.104 328.148 68.3387 328.148 68.552C327.294 69.2347 326.42 69.7893 325.524 70.216C324.628 70.6853 323.625 70.92 322.516 70.92C321.492 70.92 320.638 70.7493 319.956 70.408C319.316 70.0667 318.782 69.5973 318.356 69C317.929 68.4027 317.63 67.72 317.46 66.952C317.289 66.184 317.204 65.352 317.204 64.456C317.204 63.0053 317.396 61.576 317.78 60.168C318.164 58.7173 318.612 57.352 319.124 56.072C319.678 54.7493 320.254 53.5333 320.852 52.424C321.449 51.272 321.961 50.248 322.388 49.352Z" fill="#020202"/>
<path fill-rule="evenodd" clip-rule="evenodd" d="M4.69851 16.6985C-3.82463e-07 21.397 0 28.9591 0 44.0833C0 59.2074 -3.82463e-07 66.7698 4.69851 71.4681C9.39698 76.1667 16.9591 76.1667 32.0833 76.1667C47.2074 76.1667 54.7698 76.1667 59.4681 71.4681C64.1667 66.7698 64.1667 59.2074 64.1667 44.0833C64.1667 28.9591 64.1667 21.397 59.4681 16.6985C54.7698 12 47.2074 12 32.0833 12C16.9591 12 9.39698 12 4.69851 16.6985ZM16.8438 44.0833C16.8438 35.6668 23.6668 28.8437 32.0833 28.8437C40.5001 28.8437 47.3229 35.6668 47.3229 44.0833C47.3229 52.5001 40.5001 59.3229 32.0833 59.3229C23.6668 59.3229 16.8438 52.5001 16.8438 44.0833ZM21.6563 44.0833C21.6563 38.3247 26.3247 33.6562 32.0833 33.6562C37.842 33.6562 42.5104 38.3247 42.5104 44.0833C42.5104 49.842 37.842 54.5104 32.0833 54.5104C26.3247 54.5104 21.6563 49.842 21.6563 44.0833Z" fill="black"/>
</svg>
