<svg width="353" height="82" viewBox="0 0 353 82" fill="none" xmlns="http://www.w3.org/2000/svg">
<path d="M85.144 64.904C85.144 63.0267 85.592 60.4027 86.488 57.032C87.384 53.6187 88.6427 49.6507 90.264 45.128C92.9093 37.9173 95.384 31.9227 97.688 27.144C100.035 22.3227 102.317 18.568 104.536 15.88C105.048 15.9653 105.667 16.1787 106.392 16.52C107.16 16.8613 107.907 17.2453 108.632 17.672C109.357 18.056 109.997 18.4613 110.552 18.888C111.149 19.3147 111.533 19.656 111.704 19.912C108.376 23.8373 105.453 28.0613 102.936 32.584C100.419 37.1067 98.1147 42.2907 96.024 48.136C94.232 53.1707 92.8667 57.7147 91.928 61.768C90.9893 65.7787 90.52 69.128 90.52 71.816C90.52 72.5413 90.52 72.9893 90.52 73.16C90.52 73.3307 90.5413 73.5013 90.584 73.672C89.9867 73.5867 89.4747 73.4373 89.048 73.224C88.6213 73.0107 88.344 72.7547 88.216 72.456C88.1307 72.2427 87.896 71.9227 87.512 71.496C87.128 71.112 86.7867 70.8133 86.488 70.6C86.104 70.344 85.784 69.6827 85.528 68.616C85.272 67.5067 85.144 66.2693 85.144 64.904ZM100.397 64.712C100.397 64.328 100.418 63.8587 100.461 63.304C100.546 62.7067 100.674 61.9387 100.845 61C101.016 60.0187 101.229 58.8453 101.485 57.48C101.784 56.1147 102.146 54.472 102.573 52.552C102.658 52.1253 102.85 51.4427 103.149 50.504C103.448 49.5653 103.832 48.584 104.301 47.56C104.813 46.4933 105.41 45.4693 106.093 44.488C106.818 43.5067 107.672 42.7813 108.653 42.312C109.378 42.4827 110.338 42.9307 111.533 43.656C112.728 44.3387 113.752 45.2987 114.605 46.536C113.624 47.6453 112.792 48.7547 112.109 49.864C111.469 50.9733 110.872 52.1253 110.317 53.32C109.805 54.5147 109.314 55.752 108.845 57.032C108.418 58.312 107.928 59.656 107.373 61.064C106.904 62.2587 106.477 63.496 106.093 64.776C105.709 66.0133 105.496 67.1013 105.453 68.04C105.453 68.808 105.432 69.3413 105.389 69.64C105.389 69.9813 105.282 70.152 105.069 70.152C104.898 70.152 104.557 70.0453 104.045 69.832C103.533 69.6187 103 69.2987 102.445 68.872C101.933 68.4027 101.464 67.8267 101.037 67.144C100.61 66.4613 100.397 65.6507 100.397 64.712ZM112.621 36.936C112.621 36.68 112.685 36.296 112.813 35.784C112.6 35.5707 112.408 35.2507 112.237 34.824C112.109 34.3973 112.045 34.0133 112.045 33.672C112.045 33.288 112.088 32.776 112.173 32.136C112.301 31.4533 112.45 30.728 112.621 29.96C112.792 29.192 113.005 28.4027 113.261 27.592C113.517 26.7387 113.773 25.9707 114.029 25.288C114.541 25.288 115.16 25.4373 115.885 25.736C116.653 25.992 117.421 26.3547 118.189 26.824C118.957 27.2507 119.661 27.7413 120.301 28.296C120.941 28.808 121.432 29.2987 121.773 29.768C121.304 30.2373 120.685 30.8987 119.917 31.752C119.149 32.5627 118.402 33.4373 117.677 34.376C116.952 35.272 116.29 36.1253 115.693 36.936C115.096 37.7467 114.712 38.3227 114.541 38.664C114.029 38.5787 113.581 38.3653 113.197 38.024C112.813 37.64 112.621 37.2773 112.621 36.936ZM118.978 46.344C118.978 45.576 119.021 44.8507 119.106 44.168C119.234 43.4853 119.469 42.9093 119.81 42.44C120.151 41.928 120.621 41.544 121.218 41.288C121.815 40.9893 122.605 40.84 123.586 40.84C124.183 40.84 124.845 40.904 125.57 41.032C126.338 41.16 126.893 41.3947 127.234 41.736C127.063 42.4613 126.914 43.1013 126.786 43.656C126.701 44.2107 126.615 44.8293 126.53 45.512C126.487 46.152 126.445 46.9413 126.402 47.88C126.359 48.776 126.317 49.9493 126.274 51.4C126.189 54.3013 126.039 56.904 125.826 59.208C125.655 61.4693 125.229 63.7307 124.546 65.992C124.546 66.1627 124.61 66.248 124.738 66.248C125.378 65.7787 126.103 65.096 126.914 64.2C127.725 63.304 128.578 62.3013 129.474 61.192C130.37 60.04 131.266 58.824 132.162 57.544C133.058 56.264 133.89 55.0053 134.658 53.768C135.682 51.976 136.813 49.736 138.05 47.048C139.287 44.36 140.311 41.48 141.122 38.408C141.378 38.408 141.698 38.472 142.082 38.6C142.509 38.6853 142.914 38.8133 143.298 38.984C143.725 39.112 144.087 39.2613 144.386 39.432C144.727 39.6027 144.962 39.752 145.09 39.88C145.005 41.7147 144.557 43.592 143.746 45.512C142.978 47.432 142.039 49.288 140.93 51.08C139.821 52.872 138.647 54.5573 137.41 56.136C136.173 57.7147 135.042 59.08 134.018 60.232C131.97 62.6213 129.901 64.7547 127.81 66.632C125.762 68.5093 123.309 70.3227 120.45 72.072C119.341 71.6453 118.466 71.0693 117.826 70.344C117.186 69.6613 116.866 68.936 116.866 68.168C116.866 67.656 116.973 67.08 117.186 66.44C117.442 65.7573 117.719 64.904 118.018 63.88C118.317 62.8133 118.573 61.4907 118.786 59.912C119.042 58.3333 119.17 56.328 119.17 53.896C119.17 52.488 119.127 51.08 119.042 49.672C118.999 48.2213 118.978 47.112 118.978 46.344ZM167.058 42.504C166.887 45.1493 166.418 47.432 165.65 49.352C164.882 51.2293 163.772 52.8933 162.322 54.344C160.914 55.752 159.186 57.032 157.138 58.184C155.09 59.336 152.7 60.4453 149.97 61.512C149.97 61.768 149.948 62.0453 149.906 62.344C149.906 62.6 149.906 62.8773 149.906 63.176C149.906 63.7307 149.948 64.3067 150.034 64.904C150.119 65.5013 150.268 66.056 150.482 66.568C150.695 67.08 150.994 67.5067 151.378 67.848C151.762 68.1467 152.252 68.296 152.85 68.296C154.002 68.296 155.132 68.04 156.242 67.528C157.351 67.016 158.396 66.3973 159.378 65.672C160.402 64.904 161.34 64.0933 162.194 63.24C163.09 62.344 163.879 61.5333 164.562 60.808C164.988 61.192 165.351 61.5547 165.65 61.896C163.73 64.456 161.618 66.5893 159.314 68.296C157.052 69.96 154.898 71.0267 152.85 71.496C149.906 71.1547 147.602 70.088 145.938 68.296C144.316 66.4613 143.506 64.264 143.506 61.704C143.506 59.9547 143.74 58.184 144.21 56.392C144.722 54.5573 145.404 52.808 146.258 51.144C147.154 49.4373 148.178 47.8373 149.33 46.344C150.524 44.8507 151.783 43.5493 153.106 42.44C154.471 41.3307 155.858 40.456 157.266 39.816C158.716 39.176 160.146 38.856 161.554 38.856C163.516 39.112 165.351 40.328 167.058 42.504ZM162.642 44.616C161.49 44.7867 160.295 45.256 159.058 46.024C157.82 46.792 156.647 47.816 155.538 49.096C154.471 50.376 153.49 51.8693 152.594 53.576C151.698 55.2827 150.994 57.1173 150.482 59.08C153.895 57.3733 156.732 55.2827 158.994 52.808C161.255 50.2907 162.471 47.56 162.642 44.616ZM192.101 43.528C192.058 44.3387 191.909 45.192 191.653 46.088C191.439 46.9413 191.162 47.7307 190.821 48.456C190.479 49.1387 190.117 49.7147 189.733 50.184C189.349 50.6533 188.986 50.888 188.645 50.888C188.175 50.8453 187.898 50.5253 187.813 49.928C187.813 49.8 187.855 49.608 187.941 49.352C188.069 49.0533 188.197 48.7333 188.325 48.392C188.453 48.0507 188.559 47.7093 188.645 47.368C188.773 47.0267 188.837 46.728 188.837 46.472C188.837 45.8747 188.687 45.384 188.389 45C188.133 44.5733 187.77 44.36 187.301 44.36C185.594 44.36 184.293 45.4267 183.397 47.56C182.501 49.6933 182.053 52.8293 182.053 56.968C182.053 57.3947 182.074 57.6507 182.117 57.736C183.013 57.6933 183.802 57.672 184.485 57.672C185.21 57.6293 185.914 57.608 186.597 57.608C186.639 57.6933 186.661 57.864 186.661 58.12C186.661 58.504 186.575 58.7813 186.405 58.952C185.423 59.1653 184.634 59.3573 184.037 59.528C183.482 59.656 183.055 59.784 182.757 59.912C182.458 60.04 182.266 60.1893 182.181 60.36C182.138 60.488 182.117 60.68 182.117 60.936C182.117 61.2773 182.117 61.6187 182.117 61.96C182.159 62.3013 182.181 62.728 182.181 63.24C182.181 66.824 181.199 69.704 179.237 71.88C177.317 74.056 174.629 75.3147 171.173 75.656C170.575 75.6133 169.957 75.4427 169.317 75.144C168.677 74.8453 168.058 74.4613 167.461 73.992C166.906 73.5227 166.415 72.9893 165.989 72.392C165.562 71.8373 165.263 71.2613 165.093 70.664C165.093 69.0427 165.434 67.5067 166.117 66.056C166.799 64.5627 167.717 63.2613 168.869 62.152C170.063 61 171.45 60.0827 173.029 59.4C174.65 58.6747 176.399 58.248 178.277 58.12C178.277 57.0533 178.17 56.008 177.957 54.984C177.743 53.96 177.509 52.9787 177.253 52.04C177.039 51.0587 176.826 50.12 176.613 49.224C176.399 48.2853 176.293 47.368 176.293 46.472C176.293 45.32 176.527 44.1893 176.997 43.08C177.466 41.928 178.085 40.8827 178.853 39.944C179.621 38.9627 180.517 38.1307 181.541 37.448C182.565 36.7653 183.631 36.296 184.741 36.04C185.21 36.168 185.829 36.552 186.597 37.192C187.407 37.7893 188.197 38.472 188.965 39.24C189.733 40.008 190.415 40.7973 191.013 41.608C191.61 42.376 191.973 43.016 192.101 43.528ZM170.981 72.712C172.005 72.2853 172.965 71.6667 173.861 70.856C174.799 70.0453 175.61 69.128 176.293 68.104C176.975 67.08 177.509 65.992 177.893 64.84C178.319 63.688 178.533 62.5573 178.533 61.448C177.679 61.576 176.741 61.9813 175.717 62.664C174.693 63.304 173.733 64.0933 172.837 65.032C171.941 65.928 171.194 66.8667 170.597 67.848C169.999 68.8293 169.701 69.6827 169.701 70.408C169.701 71.3467 170.127 72.1147 170.981 72.712ZM195.922 44.488C195.708 44.232 195.516 43.6987 195.345 42.888C195.175 42.0347 195.09 41.3093 195.09 40.712C196.199 40.7973 197.266 40.8827 198.29 40.968C199.314 41.0107 200.252 41.0533 201.106 41.096C201.746 39.816 202.428 38.5573 203.154 37.32C203.922 36.04 204.647 34.888 205.33 33.864C206.055 32.7973 206.716 31.9013 207.314 31.176C207.954 30.4507 208.444 29.9813 208.786 29.768C209.212 29.768 209.746 29.8533 210.386 30.024C211.068 30.152 211.751 30.344 212.434 30.6C213.116 30.8133 213.735 31.048 214.29 31.304C214.844 31.56 215.228 31.816 215.442 32.072C214.162 33.6933 213.052 35.208 212.114 36.616C211.218 37.9813 210.236 39.56 209.17 41.352C210.023 41.352 210.876 41.3307 211.73 41.288C212.626 41.2453 213.522 41.1813 214.418 41.096C214.631 41.3093 214.802 41.5867 214.93 41.928C215.058 42.2267 215.122 42.5467 215.122 42.888C213.031 43.656 210.492 44.0827 207.506 44.168C206.439 46.216 205.479 48.264 204.626 50.312C203.815 52.3173 203.111 54.2587 202.514 56.136C201.959 58.0133 201.511 59.784 201.17 61.448C200.871 63.112 200.722 64.6053 200.722 65.928C200.722 67.8053 201.426 68.8507 202.833 69.064C204.113 68.8933 205.33 68.5733 206.482 68.104C207.634 67.6347 208.658 67.0373 209.554 66.312C209.81 66.696 209.959 67.016 210.002 67.272C209.746 67.656 209.298 68.104 208.658 68.616C208.06 69.128 207.399 69.6187 206.674 70.088C205.948 70.6 205.244 71.0267 204.562 71.368C203.879 71.7093 203.367 71.9013 203.026 71.944C201.959 71.9013 200.892 71.6667 199.826 71.24C198.759 70.8133 197.778 70.28 196.882 69.64C196.028 69 195.324 68.296 194.77 67.528C194.215 66.7173 193.938 65.928 193.938 65.16C193.938 64.136 194.066 62.856 194.322 61.32C194.62 59.7413 195.026 58.0347 195.538 56.2C196.05 54.3653 196.647 52.4453 197.33 50.44C198.012 48.4347 198.759 46.4507 199.57 44.488H195.922ZM213.11 67.72C213.323 66.4827 213.686 64.8613 214.198 62.856C214.752 60.808 215.392 58.6533 216.118 56.392C216.843 54.088 217.611 51.784 218.422 49.48C219.232 47.176 220.022 45.1067 220.79 43.272C221.344 41.9493 221.835 40.9253 222.262 40.2C222.688 39.432 223.158 38.792 223.67 38.28C224.267 38.3653 224.886 38.5147 225.526 38.728C226.166 38.9413 226.784 39.1973 227.382 39.496C227.979 39.7947 228.512 40.1147 228.982 40.456C229.451 40.7547 229.814 41.0533 230.07 41.352C228.918 42.7173 227.894 44.2747 226.998 46.024C226.144 47.7733 225.27 50.0133 224.374 52.744C226.678 50.696 228.704 48.7333 230.454 46.856C232.246 44.9787 233.91 42.888 235.446 40.584C235.702 40.3707 236.15 40.264 236.79 40.264C237.387 40.264 237.963 40.3707 238.518 40.584C239.072 40.7547 239.456 41.0107 239.67 41.352C238.902 43.4 238.518 45.4267 238.518 47.432C238.518 49.3093 238.795 50.7173 239.35 51.656C239.307 51.912 239.008 52.4027 238.454 53.128C237.942 53.8533 237.366 54.536 236.726 55.176C235.574 54.5787 234.55 53.768 233.654 52.744C232.758 51.6773 232.096 50.5253 231.67 49.288C229.664 50.696 227.958 52.0827 226.55 53.448C225.142 54.7707 223.926 56.264 222.902 57.928C221.92 59.5493 221.067 61.4267 220.342 63.56C219.659 65.6933 218.998 68.232 218.358 71.176C217.974 71.1333 217.504 70.984 216.95 70.728C216.438 70.5147 215.904 70.2373 215.35 69.896C214.838 69.5547 214.368 69.192 213.942 68.808C213.515 68.424 213.238 68.0613 213.11 67.72ZM263.37 42.504C263.199 45.1493 262.73 47.432 261.962 49.352C261.194 51.2293 260.085 52.8933 258.634 54.344C257.226 55.752 255.498 57.032 253.45 58.184C251.402 59.336 249.013 60.4453 246.282 61.512C246.282 61.768 246.261 62.0453 246.218 62.344C246.218 62.6 246.218 62.8773 246.218 63.176C246.218 63.7307 246.261 64.3067 246.346 64.904C246.431 65.5013 246.581 66.056 246.794 66.568C247.007 67.08 247.306 67.5067 247.69 67.848C248.074 68.1467 248.565 68.296 249.162 68.296C250.314 68.296 251.445 68.04 252.554 67.528C253.663 67.016 254.709 66.3973 255.69 65.672C256.714 64.904 257.653 64.0933 258.506 63.24C259.402 62.344 260.191 61.5333 260.874 60.808C261.301 61.192 261.663 61.5547 261.962 61.896C260.042 64.456 257.93 66.5893 255.626 68.296C253.365 69.96 251.21 71.0267 249.162 71.496C246.218 71.1547 243.914 70.088 242.25 68.296C240.629 66.4613 239.818 64.264 239.818 61.704C239.818 59.9547 240.053 58.184 240.522 56.392C241.034 54.5573 241.717 52.808 242.57 51.144C243.466 49.4373 244.49 47.8373 245.642 46.344C246.837 44.8507 248.095 43.5493 249.418 42.44C250.783 41.3307 252.17 40.456 253.578 39.816C255.029 39.176 256.458 38.856 257.866 38.856C259.829 39.112 261.663 40.328 263.37 42.504ZM258.954 44.616C257.802 44.7867 256.607 45.256 255.37 46.024C254.133 46.792 252.959 47.816 251.85 49.096C250.783 50.376 249.802 51.8693 248.906 53.576C248.01 55.2827 247.306 57.1173 246.794 59.08C250.207 57.3733 253.045 55.2827 255.306 52.808C257.567 50.2907 258.783 47.56 258.954 44.616ZM288.413 43.144C288.84 43.144 289.33 43.2293 289.885 43.4C290.482 43.528 291.016 43.72 291.485 43.976C291.954 44.1893 292.338 44.424 292.637 44.68C292.978 44.936 293.149 45.1707 293.149 45.384C292.296 47.176 291.506 48.9893 290.781 50.824C290.056 52.616 289.437 54.344 288.925 56.008C288.413 57.672 288.008 59.2293 287.709 60.68C287.453 62.1307 287.325 63.3893 287.325 64.456C287.325 65.6507 287.453 66.6533 287.709 67.464C287.965 68.232 288.392 68.7867 288.989 69.128C288.477 69.4693 287.816 69.7467 287.005 69.96C286.194 70.1733 285.469 70.28 284.829 70.28C282.525 70.28 281.373 68.7013 281.373 65.544C281.373 63.112 282.184 59.784 283.805 55.56C282.952 57.5227 281.97 59.3787 280.861 61.128C279.752 62.8347 278.621 64.3493 277.469 65.672C276.317 66.9947 275.144 68.0827 273.949 68.936C272.797 69.7467 271.73 70.2373 270.749 70.408C269.17 70.3227 267.89 69.576 266.909 68.168C265.928 66.7173 265.437 64.8827 265.437 62.664C265.437 60.2747 265.949 57.7573 266.973 55.112C267.997 52.4667 269.298 50.0133 270.877 47.752C272.498 45.4907 274.248 43.6133 276.125 42.12C278.002 40.584 279.816 39.7733 281.565 39.688C281.992 39.816 282.461 40.072 282.973 40.456C283.528 40.84 284.04 41.288 284.509 41.8C285.021 42.312 285.448 42.8453 285.789 43.4C286.13 43.912 286.322 44.36 286.365 44.744C284.658 45 282.888 45.832 281.053 47.24C279.261 48.648 277.618 50.3547 276.125 52.36C274.674 54.3227 273.48 56.4347 272.541 58.696C271.602 60.9573 271.133 63.0693 271.133 65.032C271.133 65.8427 271.432 66.3547 272.029 66.568C273.266 66.312 274.696 65.2667 276.317 63.432C277.938 61.5547 279.901 58.6747 282.205 54.792C282.632 54.024 283.101 53.1707 283.613 52.232C284.168 51.2933 284.722 50.312 285.277 49.288C285.832 48.264 286.365 47.24 286.877 46.216C287.432 45.1493 287.944 44.1253 288.413 43.144ZM333.388 49.352C332.705 49.3947 331.873 49.8427 330.892 50.696C329.91 51.5067 328.844 52.5733 327.692 53.896C326.582 55.176 325.409 56.6053 324.172 58.184C322.977 59.7627 321.804 61.3413 320.652 62.92C319.542 64.456 318.497 65.9067 317.516 67.272C316.534 68.6373 315.702 69.7253 315.02 70.536C314.081 70.152 313.27 69.5973 312.588 68.872C311.905 68.104 311.414 67.1653 311.116 66.056C311.329 64.7333 311.628 63.368 312.012 61.96C312.396 60.5093 312.886 59.016 313.484 57.48C314.124 55.944 314.892 54.344 315.788 52.68C316.726 50.9733 317.857 49.1813 319.18 47.304C318.54 47.3467 317.665 47.816 316.556 48.712C315.446 49.5653 314.252 50.696 312.972 52.104C311.692 53.4693 310.369 55.0267 309.003 56.776C307.638 58.4827 306.358 60.168 305.164 61.832C303.585 64.0507 302.262 65.992 301.196 67.656C300.172 69.32 299.425 70.3013 298.956 70.6C297.846 69.7893 297.078 68.9147 296.652 67.976C296.225 67.0373 295.905 65.992 295.692 64.84C295.734 63.816 295.884 62.536 296.14 61C296.438 59.464 296.844 57.8853 297.356 56.264C298.337 53.1493 299.596 50.056 301.132 46.984C302.71 43.912 304.225 41.096 305.676 38.536C306.87 38.792 307.937 39.1973 308.876 39.752C309.857 40.3067 310.881 41.1173 311.948 42.184C311.521 43.5067 310.86 44.9147 309.964 46.408C309.068 47.8587 308.129 49.3947 307.148 51.016C306.166 52.6373 305.27 54.3013 304.46 56.008C303.649 57.7147 303.116 59.4427 302.86 61.192C304.054 59.4853 305.462 57.5227 307.083 55.304C308.748 53.0853 310.433 50.9947 312.14 49.032C313.889 47.0693 315.617 45.4053 317.324 44.04C319.03 42.6747 320.566 41.992 321.932 41.992C322.444 41.992 322.998 42.0773 323.596 42.248C324.193 42.4187 324.748 42.632 325.26 42.888C325.772 43.144 326.198 43.4 326.54 43.656C326.881 43.8693 327.073 44.04 327.116 44.168C326.902 45.0213 326.39 46.1947 325.58 47.688C324.812 49.1387 323.98 50.6747 323.083 52.296C322.188 53.9173 321.356 55.496 320.588 57.032C319.82 58.5253 319.372 59.72 319.244 60.616C321.334 57.7573 323.297 55.176 325.132 52.872C326.966 50.5253 328.694 48.52 330.316 46.856C331.937 45.192 333.43 43.912 334.796 43.016C336.204 42.12 337.526 41.672 338.764 41.672C339.617 41.672 340.406 41.9067 341.132 42.376C341.9 42.8027 342.433 43.4427 342.732 44.296C342.348 45.576 341.708 47.112 340.812 48.904C339.958 50.696 339.084 52.5947 338.188 54.6C337.292 56.5627 336.481 58.504 335.756 60.424C335.073 62.344 334.732 64.072 334.732 65.608C334.732 66.504 334.86 67.1013 335.116 67.4C335.372 67.656 335.734 67.784 336.204 67.784C336.716 67.784 337.185 67.6987 337.612 67.528C338.081 67.3147 338.422 67.208 338.636 67.208C338.892 67.3787 339.041 67.592 339.084 67.848C339.126 68.104 339.148 68.3387 339.148 68.552C338.294 69.2347 337.42 69.7893 336.524 70.216C335.628 70.6853 334.625 70.92 333.516 70.92C332.492 70.92 331.638 70.7493 330.956 70.408C330.316 70.0667 329.782 69.5973 329.356 69C328.929 68.4027 328.63 67.72 328.46 66.952C328.289 66.184 328.204 65.352 328.204 64.456C328.204 63.0053 328.396 61.576 328.78 60.168C329.164 58.7173 329.612 57.352 330.124 56.072C330.678 54.7493 331.254 53.5333 331.852 52.424C332.449 51.272 332.961 50.248 333.388 49.352Z" fill="black"/>
<g clip-path="url(#clip0_12_3)">
<path fill-rule="evenodd" clip-rule="evenodd" d="M17.6985 16.6985C13 21.397 13 28.9591 13 44.0833C13 59.2074 13 66.7698 17.6985 71.4681C22.397 76.1667 29.9591 76.1667 45.0833 76.1667C60.2074 76.1667 67.7698 76.1667 72.4681 71.4681C77.1667 66.7698 77.1667 59.2074 77.1667 44.0833C77.1667 28.9591 77.1667 21.397 72.4681 16.6985C67.7698 12 60.2074 12 45.0833 12C29.9591 12 22.397 12 17.6985 16.6985ZM29.8438 44.0833C29.8438 35.6668 36.6668 28.8438 45.0833 28.8438C53.5001 28.8438 60.3229 35.6668 60.3229 44.0833C60.3229 52.5001 53.5001 59.3229 45.0833 59.3229C36.6668 59.3229 29.8438 52.5001 29.8438 44.0833ZM34.6562 44.0833C34.6562 38.3247 39.3247 33.6562 45.0833 33.6562C50.842 33.6562 55.5104 38.3247 55.5104 44.0833C55.5104 49.842 50.842 54.5104 45.0833 54.5104C39.3247 54.5104 34.6562 49.842 34.6562 44.0833Z" fill="black"/>
</g>
<defs>
<clipPath id="clip0_12_3">
<rect width="77" height="77" fill="white" transform="translate(0 5)"/>
</clipPath>
</defs>
</svg>
