<svg width="357" height="83" viewBox="0 0 357 83" fill="none" xmlns="http://www.w3.org/2000/svg">
<path d="M89.144 64.904C89.144 63.0267 89.592 60.4027 90.488 57.032C91.384 53.6187 92.6427 49.6507 94.264 45.128C96.9093 37.9173 99.384 31.9227 101.688 27.144C104.035 22.3227 106.317 18.568 108.536 15.88C109.048 15.9653 109.667 16.1787 110.392 16.52C111.16 16.8613 111.907 17.2453 112.632 17.672C113.357 18.056 113.997 18.4613 114.552 18.888C115.149 19.3147 115.533 19.656 115.704 19.912C112.376 23.8373 109.453 28.0613 106.936 32.584C104.419 37.1067 102.115 42.2907 100.024 48.136C98.232 53.1707 96.8667 57.7147 95.928 61.768C94.9893 65.7787 94.52 69.128 94.52 71.816C94.52 72.5413 94.52 72.9893 94.52 73.16C94.52 73.3307 94.5413 73.5013 94.584 73.672C93.9867 73.5867 93.4747 73.4373 93.048 73.224C92.6213 73.0107 92.344 72.7547 92.216 72.456C92.1307 72.2427 91.896 71.9227 91.512 71.496C91.128 71.112 90.7867 70.8133 90.488 70.6C90.104 70.344 89.784 69.6827 89.528 68.616C89.272 67.5067 89.144 66.2693 89.144 64.904ZM104.397 64.712C104.397 64.328 104.418 63.8587 104.461 63.304C104.546 62.7067 104.674 61.9387 104.845 61C105.016 60.0187 105.229 58.8453 105.485 57.48C105.784 56.1147 106.146 54.472 106.573 52.552C106.658 52.1253 106.85 51.4427 107.149 50.504C107.448 49.5653 107.832 48.584 108.301 47.56C108.813 46.4933 109.41 45.4693 110.093 44.488C110.818 43.5067 111.672 42.7813 112.653 42.312C113.378 42.4827 114.338 42.9307 115.533 43.656C116.728 44.3387 117.752 45.2987 118.605 46.536C117.624 47.6453 116.792 48.7547 116.109 49.864C115.469 50.9733 114.872 52.1253 114.317 53.32C113.805 54.5147 113.314 55.752 112.845 57.032C112.418 58.312 111.928 59.656 111.373 61.064C110.904 62.2587 110.477 63.496 110.093 64.776C109.709 66.0133 109.496 67.1013 109.453 68.04C109.453 68.808 109.432 69.3413 109.389 69.64C109.389 69.9813 109.282 70.152 109.069 70.152C108.898 70.152 108.557 70.0453 108.045 69.832C107.533 69.6187 107 69.2987 106.445 68.872C105.933 68.4027 105.464 67.8267 105.037 67.144C104.61 66.4613 104.397 65.6507 104.397 64.712ZM116.621 36.936C116.621 36.68 116.685 36.296 116.813 35.784C116.6 35.5707 116.408 35.2507 116.237 34.824C116.109 34.3973 116.045 34.0133 116.045 33.672C116.045 33.288 116.088 32.776 116.173 32.136C116.301 31.4533 116.45 30.728 116.621 29.96C116.792 29.192 117.005 28.4027 117.261 27.592C117.517 26.7387 117.773 25.9707 118.029 25.288C118.541 25.288 119.16 25.4373 119.885 25.736C120.653 25.992 121.421 26.3547 122.189 26.824C122.957 27.2507 123.661 27.7413 124.301 28.296C124.941 28.808 125.432 29.2987 125.773 29.768C125.304 30.2373 124.685 30.8987 123.917 31.752C123.149 32.5627 122.402 33.4373 121.677 34.376C120.952 35.272 120.29 36.1253 119.693 36.936C119.096 37.7467 118.712 38.3227 118.541 38.664C118.029 38.5787 117.581 38.3653 117.197 38.024C116.813 37.64 116.621 37.2773 116.621 36.936ZM122.978 46.344C122.978 45.576 123.021 44.8507 123.106 44.168C123.234 43.4853 123.469 42.9093 123.81 42.44C124.151 41.928 124.621 41.544 125.218 41.288C125.815 40.9893 126.605 40.84 127.586 40.84C128.183 40.84 128.845 40.904 129.57 41.032C130.338 41.16 130.893 41.3947 131.234 41.736C131.063 42.4613 130.914 43.1013 130.786 43.656C130.701 44.2107 130.615 44.8293 130.53 45.512C130.487 46.152 130.445 46.9413 130.402 47.88C130.359 48.776 130.317 49.9493 130.274 51.4C130.189 54.3013 130.039 56.904 129.826 59.208C129.655 61.4693 129.229 63.7307 128.546 65.992C128.546 66.1627 128.61 66.248 128.738 66.248C129.378 65.7787 130.103 65.096 130.914 64.2C131.725 63.304 132.578 62.3013 133.474 61.192C134.37 60.04 135.266 58.824 136.162 57.544C137.058 56.264 137.89 55.0053 138.658 53.768C139.682 51.976 140.813 49.736 142.05 47.048C143.287 44.36 144.311 41.48 145.122 38.408C145.378 38.408 145.698 38.472 146.082 38.6C146.509 38.6853 146.914 38.8133 147.298 38.984C147.725 39.112 148.087 39.2613 148.386 39.432C148.727 39.6027 148.962 39.752 149.09 39.88C149.005 41.7147 148.557 43.592 147.746 45.512C146.978 47.432 146.039 49.288 144.93 51.08C143.821 52.872 142.647 54.5573 141.41 56.136C140.173 57.7147 139.042 59.08 138.018 60.232C135.97 62.6213 133.901 64.7547 131.81 66.632C129.762 68.5093 127.309 70.3227 124.45 72.072C123.341 71.6453 122.466 71.0693 121.826 70.344C121.186 69.6613 120.866 68.936 120.866 68.168C120.866 67.656 120.973 67.08 121.186 66.44C121.442 65.7573 121.719 64.904 122.018 63.88C122.317 62.8133 122.573 61.4907 122.786 59.912C123.042 58.3333 123.17 56.328 123.17 53.896C123.17 52.488 123.127 51.08 123.042 49.672C122.999 48.2213 122.978 47.112 122.978 46.344ZM171.058 42.504C170.887 45.1493 170.418 47.432 169.65 49.352C168.882 51.2293 167.772 52.8933 166.322 54.344C164.914 55.752 163.186 57.032 161.138 58.184C159.09 59.336 156.7 60.4453 153.97 61.512C153.97 61.768 153.948 62.0453 153.906 62.344C153.906 62.6 153.906 62.8773 153.906 63.176C153.906 63.7307 153.948 64.3067 154.034 64.904C154.119 65.5013 154.268 66.056 154.482 66.568C154.695 67.08 154.994 67.5067 155.378 67.848C155.762 68.1467 156.252 68.296 156.85 68.296C158.002 68.296 159.132 68.04 160.242 67.528C161.351 67.016 162.396 66.3973 163.378 65.672C164.402 64.904 165.34 64.0933 166.194 63.24C167.09 62.344 167.879 61.5333 168.562 60.808C168.988 61.192 169.351 61.5547 169.65 61.896C167.73 64.456 165.618 66.5893 163.314 68.296C161.052 69.96 158.898 71.0267 156.85 71.496C153.906 71.1547 151.602 70.088 149.938 68.296C148.316 66.4613 147.506 64.264 147.506 61.704C147.506 59.9547 147.74 58.184 148.21 56.392C148.722 54.5573 149.404 52.808 150.258 51.144C151.154 49.4373 152.178 47.8373 153.33 46.344C154.524 44.8507 155.783 43.5493 157.106 42.44C158.471 41.3307 159.858 40.456 161.266 39.816C162.716 39.176 164.146 38.856 165.554 38.856C167.516 39.112 169.351 40.328 171.058 42.504ZM166.642 44.616C165.49 44.7867 164.295 45.256 163.058 46.024C161.82 46.792 160.647 47.816 159.538 49.096C158.471 50.376 157.49 51.8693 156.594 53.576C155.698 55.2827 154.994 57.1173 154.482 59.08C157.895 57.3733 160.732 55.2827 162.994 52.808C165.255 50.2907 166.471 47.56 166.642 44.616ZM196.101 43.528C196.058 44.3387 195.909 45.192 195.653 46.088C195.439 46.9413 195.162 47.7307 194.821 48.456C194.479 49.1387 194.117 49.7147 193.733 50.184C193.349 50.6533 192.986 50.888 192.645 50.888C192.175 50.8453 191.898 50.5253 191.813 49.928C191.813 49.8 191.855 49.608 191.941 49.352C192.069 49.0533 192.197 48.7333 192.325 48.392C192.453 48.0507 192.559 47.7093 192.645 47.368C192.773 47.0267 192.837 46.728 192.837 46.472C192.837 45.8747 192.687 45.384 192.389 45C192.133 44.5733 191.77 44.36 191.301 44.36C189.594 44.36 188.293 45.4267 187.397 47.56C186.501 49.6933 186.053 52.8293 186.053 56.968C186.053 57.3947 186.074 57.6507 186.117 57.736C187.013 57.6933 187.802 57.672 188.485 57.672C189.21 57.6293 189.914 57.608 190.597 57.608C190.639 57.6933 190.661 57.864 190.661 58.12C190.661 58.504 190.575 58.7813 190.405 58.952C189.423 59.1653 188.634 59.3573 188.037 59.528C187.482 59.656 187.055 59.784 186.757 59.912C186.458 60.04 186.266 60.1893 186.181 60.36C186.138 60.488 186.117 60.68 186.117 60.936C186.117 61.2773 186.117 61.6187 186.117 61.96C186.159 62.3013 186.181 62.728 186.181 63.24C186.181 66.824 185.199 69.704 183.237 71.88C181.317 74.056 178.629 75.3147 175.173 75.656C174.575 75.6133 173.957 75.4427 173.317 75.144C172.677 74.8453 172.058 74.4613 171.461 73.992C170.906 73.5227 170.415 72.9893 169.989 72.392C169.562 71.8373 169.263 71.2613 169.093 70.664C169.093 69.0427 169.434 67.5067 170.117 66.056C170.799 64.5627 171.717 63.2613 172.869 62.152C174.063 61 175.45 60.0827 177.029 59.4C178.65 58.6747 180.399 58.248 182.277 58.12C182.277 57.0533 182.17 56.008 181.957 54.984C181.743 53.96 181.509 52.9787 181.253 52.04C181.039 51.0587 180.826 50.12 180.613 49.224C180.399 48.2853 180.293 47.368 180.293 46.472C180.293 45.32 180.527 44.1893 180.997 43.08C181.466 41.928 182.085 40.8827 182.853 39.944C183.621 38.9627 184.517 38.1307 185.541 37.448C186.565 36.7653 187.631 36.296 188.741 36.04C189.21 36.168 189.829 36.552 190.597 37.192C191.407 37.7893 192.197 38.472 192.965 39.24C193.733 40.008 194.415 40.7973 195.013 41.608C195.61 42.376 195.973 43.016 196.101 43.528ZM174.981 72.712C176.005 72.2853 176.965 71.6667 177.861 70.856C178.799 70.0453 179.61 69.128 180.293 68.104C180.975 67.08 181.509 65.992 181.893 64.84C182.319 63.688 182.533 62.5573 182.533 61.448C181.679 61.576 180.741 61.9813 179.717 62.664C178.693 63.304 177.733 64.0933 176.837 65.032C175.941 65.928 175.194 66.8667 174.597 67.848C173.999 68.8293 173.701 69.6827 173.701 70.408C173.701 71.3467 174.127 72.1147 174.981 72.712ZM199.922 44.488C199.708 44.232 199.516 43.6987 199.345 42.888C199.175 42.0347 199.09 41.3093 199.09 40.712C200.199 40.7973 201.266 40.8827 202.29 40.968C203.314 41.0107 204.252 41.0533 205.106 41.096C205.746 39.816 206.428 38.5573 207.154 37.32C207.922 36.04 208.647 34.888 209.33 33.864C210.055 32.7973 210.716 31.9013 211.314 31.176C211.954 30.4507 212.444 29.9813 212.786 29.768C213.212 29.768 213.746 29.8533 214.386 30.024C215.068 30.152 215.751 30.344 216.434 30.6C217.116 30.8133 217.735 31.048 218.29 31.304C218.844 31.56 219.228 31.816 219.442 32.072C218.162 33.6933 217.052 35.208 216.114 36.616C215.218 37.9813 214.236 39.56 213.17 41.352C214.023 41.352 214.876 41.3307 215.73 41.288C216.626 41.2453 217.522 41.1813 218.418 41.096C218.631 41.3093 218.802 41.5867 218.93 41.928C219.058 42.2267 219.122 42.5467 219.122 42.888C217.031 43.656 214.492 44.0827 211.506 44.168C210.439 46.216 209.479 48.264 208.626 50.312C207.815 52.3173 207.111 54.2587 206.514 56.136C205.959 58.0133 205.511 59.784 205.17 61.448C204.871 63.112 204.722 64.6053 204.722 65.928C204.722 67.8053 205.426 68.8507 206.833 69.064C208.113 68.8933 209.33 68.5733 210.482 68.104C211.634 67.6347 212.658 67.0373 213.554 66.312C213.81 66.696 213.959 67.016 214.002 67.272C213.746 67.656 213.298 68.104 212.658 68.616C212.06 69.128 211.399 69.6187 210.674 70.088C209.948 70.6 209.244 71.0267 208.562 71.368C207.879 71.7093 207.367 71.9013 207.026 71.944C205.959 71.9013 204.892 71.6667 203.826 71.24C202.759 70.8133 201.778 70.28 200.882 69.64C200.028 69 199.324 68.296 198.77 67.528C198.215 66.7173 197.938 65.928 197.938 65.16C197.938 64.136 198.066 62.856 198.322 61.32C198.62 59.7413 199.026 58.0347 199.538 56.2C200.05 54.3653 200.647 52.4453 201.33 50.44C202.012 48.4347 202.759 46.4507 203.57 44.488H199.922ZM217.11 67.72C217.323 66.4827 217.686 64.8613 218.198 62.856C218.752 60.808 219.392 58.6533 220.118 56.392C220.843 54.088 221.611 51.784 222.422 49.48C223.232 47.176 224.022 45.1067 224.79 43.272C225.344 41.9493 225.835 40.9253 226.262 40.2C226.688 39.432 227.158 38.792 227.67 38.28C228.267 38.3653 228.886 38.5147 229.526 38.728C230.166 38.9413 230.784 39.1973 231.382 39.496C231.979 39.7947 232.512 40.1147 232.982 40.456C233.451 40.7547 233.814 41.0533 234.07 41.352C232.918 42.7173 231.894 44.2747 230.998 46.024C230.144 47.7733 229.27 50.0133 228.374 52.744C230.678 50.696 232.704 48.7333 234.454 46.856C236.246 44.9787 237.91 42.888 239.446 40.584C239.702 40.3707 240.15 40.264 240.79 40.264C241.387 40.264 241.963 40.3707 242.518 40.584C243.072 40.7547 243.456 41.0107 243.67 41.352C242.902 43.4 242.518 45.4267 242.518 47.432C242.518 49.3093 242.795 50.7173 243.35 51.656C243.307 51.912 243.008 52.4027 242.454 53.128C241.942 53.8533 241.366 54.536 240.726 55.176C239.574 54.5787 238.55 53.768 237.654 52.744C236.758 51.6773 236.096 50.5253 235.67 49.288C233.664 50.696 231.958 52.0827 230.55 53.448C229.142 54.7707 227.926 56.264 226.902 57.928C225.92 59.5493 225.067 61.4267 224.342 63.56C223.659 65.6933 222.998 68.232 222.358 71.176C221.974 71.1333 221.504 70.984 220.95 70.728C220.438 70.5147 219.904 70.2373 219.35 69.896C218.838 69.5547 218.368 69.192 217.942 68.808C217.515 68.424 217.238 68.0613 217.11 67.72ZM267.37 42.504C267.199 45.1493 266.73 47.432 265.962 49.352C265.194 51.2293 264.085 52.8933 262.634 54.344C261.226 55.752 259.498 57.032 257.45 58.184C255.402 59.336 253.013 60.4453 250.282 61.512C250.282 61.768 250.261 62.0453 250.218 62.344C250.218 62.6 250.218 62.8773 250.218 63.176C250.218 63.7307 250.261 64.3067 250.346 64.904C250.431 65.5013 250.581 66.056 250.794 66.568C251.007 67.08 251.306 67.5067 251.69 67.848C252.074 68.1467 252.565 68.296 253.162 68.296C254.314 68.296 255.445 68.04 256.554 67.528C257.663 67.016 258.709 66.3973 259.69 65.672C260.714 64.904 261.653 64.0933 262.506 63.24C263.402 62.344 264.191 61.5333 264.874 60.808C265.301 61.192 265.663 61.5547 265.962 61.896C264.042 64.456 261.93 66.5893 259.626 68.296C257.365 69.96 255.21 71.0267 253.162 71.496C250.218 71.1547 247.914 70.088 246.25 68.296C244.629 66.4613 243.818 64.264 243.818 61.704C243.818 59.9547 244.053 58.184 244.522 56.392C245.034 54.5573 245.717 52.808 246.57 51.144C247.466 49.4373 248.49 47.8373 249.642 46.344C250.837 44.8507 252.095 43.5493 253.418 42.44C254.783 41.3307 256.17 40.456 257.578 39.816C259.029 39.176 260.458 38.856 261.866 38.856C263.829 39.112 265.663 40.328 267.37 42.504ZM262.954 44.616C261.802 44.7867 260.607 45.256 259.37 46.024C258.133 46.792 256.959 47.816 255.85 49.096C254.783 50.376 253.802 51.8693 252.906 53.576C252.01 55.2827 251.306 57.1173 250.794 59.08C254.207 57.3733 257.045 55.2827 259.306 52.808C261.567 50.2907 262.783 47.56 262.954 44.616ZM292.413 43.144C292.84 43.144 293.33 43.2293 293.885 43.4C294.482 43.528 295.016 43.72 295.485 43.976C295.954 44.1893 296.338 44.424 296.637 44.68C296.978 44.936 297.149 45.1707 297.149 45.384C296.296 47.176 295.506 48.9893 294.781 50.824C294.056 52.616 293.437 54.344 292.925 56.008C292.413 57.672 292.008 59.2293 291.709 60.68C291.453 62.1307 291.325 63.3893 291.325 64.456C291.325 65.6507 291.453 66.6533 291.709 67.464C291.965 68.232 292.392 68.7867 292.989 69.128C292.477 69.4693 291.816 69.7467 291.005 69.96C290.194 70.1733 289.469 70.28 288.829 70.28C286.525 70.28 285.373 68.7013 285.373 65.544C285.373 63.112 286.184 59.784 287.805 55.56C286.952 57.5227 285.97 59.3787 284.861 61.128C283.752 62.8347 282.621 64.3493 281.469 65.672C280.317 66.9947 279.144 68.0827 277.949 68.936C276.797 69.7467 275.73 70.2373 274.749 70.408C273.17 70.3227 271.89 69.576 270.909 68.168C269.928 66.7173 269.437 64.8827 269.437 62.664C269.437 60.2747 269.949 57.7573 270.973 55.112C271.997 52.4667 273.298 50.0133 274.877 47.752C276.498 45.4907 278.248 43.6133 280.125 42.12C282.002 40.584 283.816 39.7733 285.565 39.688C285.992 39.816 286.461 40.072 286.973 40.456C287.528 40.84 288.04 41.288 288.509 41.8C289.021 42.312 289.448 42.8453 289.789 43.4C290.13 43.912 290.322 44.36 290.365 44.744C288.658 45 286.888 45.832 285.053 47.24C283.261 48.648 281.618 50.3547 280.125 52.36C278.674 54.3227 277.48 56.4347 276.541 58.696C275.602 60.9573 275.133 63.0693 275.133 65.032C275.133 65.8427 275.432 66.3547 276.029 66.568C277.266 66.312 278.696 65.2667 280.317 63.432C281.938 61.5547 283.901 58.6747 286.205 54.792C286.632 54.024 287.101 53.1707 287.613 52.232C288.168 51.2933 288.722 50.312 289.277 49.288C289.832 48.264 290.365 47.24 290.877 46.216C291.432 45.1493 291.944 44.1253 292.413 43.144ZM337.388 49.352C336.705 49.3947 335.873 49.8427 334.892 50.696C333.91 51.5067 332.844 52.5733 331.692 53.896C330.582 55.176 329.409 56.6053 328.172 58.184C326.977 59.7627 325.804 61.3413 324.652 62.92C323.542 64.456 322.497 65.9067 321.516 67.272C320.534 68.6373 319.702 69.7253 319.02 70.536C318.081 70.152 317.27 69.5973 316.588 68.872C315.905 68.104 315.414 67.1653 315.116 66.056C315.329 64.7333 315.628 63.368 316.012 61.96C316.396 60.5093 316.886 59.016 317.484 57.48C318.124 55.944 318.892 54.344 319.788 52.68C320.726 50.9733 321.857 49.1813 323.18 47.304C322.54 47.3467 321.665 47.816 320.556 48.712C319.446 49.5653 318.252 50.696 316.972 52.104C315.692 53.4693 314.369 55.0267 313.003 56.776C311.638 58.4827 310.358 60.168 309.164 61.832C307.585 64.0507 306.262 65.992 305.196 67.656C304.172 69.32 303.425 70.3013 302.956 70.6C301.846 69.7893 301.078 68.9147 300.652 67.976C300.225 67.0373 299.905 65.992 299.692 64.84C299.734 63.816 299.884 62.536 300.14 61C300.438 59.464 300.844 57.8853 301.356 56.264C302.337 53.1493 303.596 50.056 305.132 46.984C306.71 43.912 308.225 41.096 309.676 38.536C310.87 38.792 311.937 39.1973 312.876 39.752C313.857 40.3067 314.881 41.1173 315.948 42.184C315.521 43.5067 314.86 44.9147 313.964 46.408C313.068 47.8587 312.129 49.3947 311.148 51.016C310.166 52.6373 309.27 54.3013 308.46 56.008C307.649 57.7147 307.116 59.4427 306.86 61.192C308.054 59.4853 309.462 57.5227 311.083 55.304C312.748 53.0853 314.433 50.9947 316.14 49.032C317.889 47.0693 319.617 45.4053 321.324 44.04C323.03 42.6747 324.566 41.992 325.932 41.992C326.444 41.992 326.998 42.0773 327.596 42.248C328.193 42.4187 328.748 42.632 329.26 42.888C329.772 43.144 330.198 43.4 330.54 43.656C330.881 43.8693 331.073 44.04 331.116 44.168C330.902 45.0213 330.39 46.1947 329.58 47.688C328.812 49.1387 327.98 50.6747 327.083 52.296C326.188 53.9173 325.356 55.496 324.588 57.032C323.82 58.5253 323.372 59.72 323.244 60.616C325.334 57.7573 327.297 55.176 329.132 52.872C330.966 50.5253 332.694 48.52 334.316 46.856C335.937 45.192 337.43 43.912 338.796 43.016C340.204 42.12 341.526 41.672 342.764 41.672C343.617 41.672 344.406 41.9067 345.132 42.376C345.9 42.8027 346.433 43.4427 346.732 44.296C346.348 45.576 345.708 47.112 344.812 48.904C343.958 50.696 343.084 52.5947 342.188 54.6C341.292 56.5627 340.481 58.504 339.756 60.424C339.073 62.344 338.732 64.072 338.732 65.608C338.732 66.504 338.86 67.1013 339.116 67.4C339.372 67.656 339.734 67.784 340.204 67.784C340.716 67.784 341.185 67.6987 341.612 67.528C342.081 67.3147 342.422 67.208 342.636 67.208C342.892 67.3787 343.041 67.592 343.084 67.848C343.126 68.104 343.148 68.3387 343.148 68.552C342.294 69.2347 341.42 69.7893 340.524 70.216C339.628 70.6853 338.625 70.92 337.516 70.92C336.492 70.92 335.638 70.7493 334.956 70.408C334.316 70.0667 333.782 69.5973 333.356 69C332.929 68.4027 332.63 67.72 332.46 66.952C332.289 66.184 332.204 65.352 332.204 64.456C332.204 63.0053 332.396 61.576 332.78 60.168C333.164 58.7173 333.612 57.352 334.124 56.072C334.678 54.7493 335.254 53.5333 335.852 52.424C336.449 51.272 336.961 50.248 337.388 49.352Z" fill="white"/>
<g clip-path="url(#clip0_7_16)">
<path fill-rule="evenodd" clip-rule="evenodd" d="M17.6985 17.6985C13 22.397 13 29.9591 13 45.0833C13 60.2074 13 67.7698 17.6985 72.4681C22.397 77.1667 29.9591 77.1667 45.0833 77.1667C60.2074 77.1667 67.7698 77.1667 72.4681 72.4681C77.1667 67.7698 77.1667 60.2074 77.1667 45.0833C77.1667 29.9591 77.1667 22.397 72.4681 17.6985C67.7698 13 60.2074 13 45.0833 13C29.9591 13 22.397 13 17.6985 17.6985ZM29.8438 45.0833C29.8438 36.6668 36.6668 29.8438 45.0833 29.8438C53.5001 29.8438 60.3229 36.6668 60.3229 45.0833C60.3229 53.5001 53.5001 60.3229 45.0833 60.3229C36.6668 60.3229 29.8438 53.5001 29.8438 45.0833ZM34.6562 45.0833C34.6562 39.3247 39.3247 34.6562 45.0833 34.6562C50.842 34.6562 55.5104 39.3247 55.5104 45.0833C55.5104 50.842 50.842 55.5104 45.0833 55.5104C39.3247 55.5104 34.6562 50.842 34.6562 45.0833Z" fill="white"/>
</g>
<defs>
<clipPath id="clip0_7_16">
<rect width="77" height="77" fill="white" transform="translate(0 6)"/>
</clipPath>
</defs>
</svg>
